<svg xmlns="http://www.w3.org/2000/svg" xmlns:xlink="http://www.w3.org/1999/xlink" width="100" zoomAndPan="magnify" viewBox="0 0 75 74.999997" height="100" preserveAspectRatio="xMidYMid meet" version="1.0"><defs><clipPath id="9170dde629"><path d="M 12.75 6.5625 L 62.25 6.5625 L 62.25 68.8125 L 12.75 68.8125 Z M 12.75 6.5625 " clip-rule="nonzero"/></clipPath></defs><g clip-path="url(#9170dde629)"><path fill="#ffffff" d="M 56.273438 6.457031 L 18.519531 6.457031 C 15.335938 6.457031 12.75 9.058594 12.75 12.261719 L 12.75 62.902344 C 12.75 66.105469 15.335938 68.707031 18.519531 68.707031 L 56.273438 68.707031 C 59.453125 68.707031 62.039062 66.105469 62.039062 62.902344 L 62.039062 12.261719 C 62.039062 9.058594 59.453125 6.457031 56.273438 6.457031 Z M 38.910156 15.011719 C 39.714844 14.695312 40.632812 15.078125 40.953125 15.894531 L 43.6875 22.769531 L 46.421875 15.894531 C 46.746094 15.082031 47.664062 14.695312 48.464844 15.011719 C 49.273438 15.335938 49.664062 16.253906 49.34375 17.066406 L 45.148438 27.617188 C 44.910156 28.21875 44.332031 28.613281 43.6875 28.613281 C 43.042969 28.613281 42.464844 28.21875 42.226562 27.617188 L 38.03125 17.066406 C 37.710938 16.253906 38.101562 15.335938 38.910156 15.011719 Z M 30.804688 14.898438 C 32.347656 14.898438 33.820312 15.550781 34.945312 16.738281 C 35.542969 17.371094 35.519531 18.371094 34.894531 18.976562 C 34.265625 19.578125 33.269531 19.554688 32.667969 18.921875 C 32.296875 18.53125 31.671875 18.0625 30.804688 18.0625 C 29.195312 18.0625 27.882812 19.71875 27.882812 21.753906 C 27.882812 23.792969 29.195312 25.449219 30.804688 25.449219 C 31.484375 25.449219 32.144531 25.144531 32.671875 24.585938 C 33.269531 23.957031 34.265625 23.929688 34.894531 24.535156 C 35.523438 25.136719 35.546875 26.136719 34.949219 26.773438 C 33.824219 27.957031 32.351562 28.613281 30.804688 28.613281 C 27.460938 28.613281 24.738281 25.539062 24.738281 21.753906 C 24.738281 17.972656 27.460938 14.898438 30.804688 14.898438 Z M 37.394531 60.265625 L 22.714844 60.265625 C 21.84375 60.265625 21.140625 59.558594 21.140625 58.683594 C 21.140625 57.808594 21.84375 57.101562 22.714844 57.101562 L 37.394531 57.101562 C 38.261719 57.101562 38.96875 57.808594 38.96875 58.683594 C 38.96875 59.558594 38.261719 60.265625 37.394531 60.265625 Z M 52.078125 49.714844 L 22.714844 49.714844 C 21.84375 49.714844 21.140625 49.007812 21.140625 48.132812 C 21.140625 47.257812 21.84375 46.550781 22.714844 46.550781 L 52.078125 46.550781 C 52.945312 46.550781 53.652344 47.257812 53.652344 48.132812 C 53.652344 49.007812 52.945312 49.714844 52.078125 49.714844 Z M 52.078125 39.164062 L 22.714844 39.164062 C 21.84375 39.164062 21.140625 38.457031 21.140625 37.582031 C 21.140625 36.707031 21.84375 36 22.714844 36 L 52.078125 36 C 52.945312 36 53.652344 36.707031 53.652344 37.582031 C 53.652344 38.457031 52.945312 39.164062 52.078125 39.164062 Z M 52.078125 39.164062 " fill-opacity="1" fill-rule="nonzero"/></g></svg>