<svg xmlns="http://www.w3.org/2000/svg" xmlns:xlink="http://www.w3.org/1999/xlink" width="500" zoomAndPan="magnify" viewBox="0 0 375 374.999991" height="500" preserveAspectRatio="xMidYMid meet" version="1.0"><defs><clipPath id="ecc35f03c8"><path d="M 60.8125 90.109375 L 314.3125 90.109375 L 314.3125 285.109375 L 60.8125 285.109375 Z M 60.8125 90.109375 " clip-rule="nonzero"/></clipPath></defs><g clip-path="url(#ecc35f03c8)"><path fill="#ffffff" d="M 80.382812 90.109375 C 69.730469 90.109375 60.894531 98.953125 60.894531 109.609375 L 60.894531 265.609375 C 60.894531 276.269531 69.730469 285.109375 80.382812 285.109375 L 294.746094 285.109375 C 305.398438 285.109375 314.234375 276.269531 314.234375 265.609375 L 314.234375 109.609375 C 314.234375 98.953125 305.398438 90.109375 294.746094 90.109375 Z M 106.683594 109.609375 L 268.445312 109.609375 L 187.5625 169.425781 Z M 90.125 133.738281 L 187.5625 205.796875 L 285.003906 133.738281 L 285.003906 265.609375 L 90.125 265.609375 Z M 90.125 133.738281 " fill-opacity="1" fill-rule="nonzero"/></g></svg>