<svg xmlns="http://www.w3.org/2000/svg" xmlns:xlink="http://www.w3.org/1999/xlink" width="500" zoomAndPan="magnify" viewBox="0 0 375 374.999991" height="500" preserveAspectRatio="xMidYMid meet" version="1.0"><defs><clipPath id="930b069165"><path d="M 65.402344 65.402344 L 309.902344 65.402344 L 309.902344 309.902344 L 65.402344 309.902344 Z M 65.402344 65.402344 " clip-rule="nonzero"/></clipPath></defs><g clip-path="url(#930b069165)"><path fill="#f03c2e" d="M 305.289062 176.765625 L 198.539062 70.019531 C 197.808594 69.285156 197.015625 68.632812 196.15625 68.058594 C 195.296875 67.484375 194.386719 67 193.433594 66.605469 C 192.476562 66.207031 191.492188 65.910156 190.480469 65.707031 C 189.464844 65.503906 188.441406 65.40625 187.40625 65.40625 C 186.375 65.40625 185.351562 65.503906 184.335938 65.707031 C 183.324219 65.910156 182.339844 66.207031 181.382812 66.605469 C 180.429688 67 179.519531 67.484375 178.660156 68.058594 C 177.800781 68.632812 177.007812 69.285156 176.277344 70.019531 L 154.117188 92.175781 L 182.234375 120.292969 C 188.777344 118 196.261719 119.566406 201.472656 124.777344 C 202.089844 125.394531 202.664062 126.054688 203.1875 126.753906 C 203.710938 127.449219 204.1875 128.183594 204.609375 128.945312 C 205.03125 129.710938 205.398438 130.5 205.710938 131.316406 C 206.023438 132.132812 206.277344 132.964844 206.472656 133.816406 C 206.667969 134.667969 206.800781 135.53125 206.875 136.398438 C 206.953125 137.269531 206.964844 138.140625 206.917969 139.015625 C 206.871094 139.886719 206.761719 140.75 206.59375 141.609375 C 206.425781 142.464844 206.199219 143.304688 205.914062 144.132812 L 233.015625 171.234375 C 239.570312 168.972656 247.136719 170.429688 252.367188 175.679688 C 252.804688 176.113281 253.214844 176.566406 253.605469 177.042969 C 253.996094 177.515625 254.359375 178.007812 254.699219 178.519531 C 255.042969 179.03125 255.359375 179.554688 255.648438 180.097656 C 255.9375 180.636719 256.199219 181.191406 256.433594 181.761719 C 256.667969 182.328125 256.875 182.90625 257.054688 183.492188 C 257.230469 184.078125 257.382812 184.675781 257.5 185.277344 C 257.621094 185.878906 257.710938 186.484375 257.773438 187.097656 C 257.832031 187.707031 257.863281 188.320312 257.863281 188.933594 C 257.863281 189.546875 257.832031 190.160156 257.773438 190.769531 C 257.710938 191.382812 257.621094 191.988281 257.503906 192.589844 C 257.382812 193.191406 257.234375 193.789062 257.054688 194.375 C 256.875 194.960938 256.671875 195.539062 256.433594 196.105469 C 256.199219 196.675781 255.9375 197.226562 255.648438 197.769531 C 255.359375 198.3125 255.042969 198.835938 254.703125 199.347656 C 254.363281 199.859375 253.996094 200.351562 253.605469 200.824219 C 253.21875 201.300781 252.804688 201.753906 252.371094 202.1875 C 251.9375 202.621094 251.484375 203.035156 251.007812 203.421875 C 250.535156 203.8125 250.039062 204.175781 249.53125 204.519531 C 249.019531 204.859375 248.492188 205.175781 247.953125 205.464844 C 247.410156 205.753906 246.855469 206.015625 246.289062 206.25 C 245.722656 206.484375 245.144531 206.691406 244.558594 206.871094 C 243.96875 207.046875 243.375 207.195312 242.773438 207.316406 C 242.171875 207.433594 241.5625 207.523438 240.953125 207.585938 C 240.339844 207.644531 239.730469 207.675781 239.117188 207.675781 C 238.5 207.675781 237.890625 207.644531 237.277344 207.582031 C 236.667969 207.523438 236.058594 207.433594 235.457031 207.3125 C 234.855469 207.191406 234.261719 207.042969 233.675781 206.863281 C 233.085938 206.6875 232.507812 206.480469 231.941406 206.246094 C 231.375 206.007812 230.820312 205.746094 230.28125 205.457031 C 229.738281 205.167969 229.210938 204.851562 228.703125 204.511719 C 228.191406 204.167969 227.699219 203.804688 227.226562 203.414062 C 226.75 203.023438 226.296875 202.613281 225.863281 202.175781 C 220.363281 196.675781 219.003906 188.578125 221.785156 181.800781 L 196.507812 156.523438 L 196.507812 223.035156 C 198.355469 223.949219 200.011719 225.132812 201.472656 226.582031 C 201.910156 227.015625 202.320312 227.46875 202.710938 227.945312 C 203.097656 228.417969 203.464844 228.910156 203.804688 229.421875 C 204.144531 229.929688 204.460938 230.457031 204.75 230.996094 C 205.039062 231.539062 205.300781 232.09375 205.535156 232.660156 C 205.769531 233.226562 205.976562 233.804688 206.15625 234.390625 C 206.332031 234.980469 206.484375 235.574219 206.601562 236.175781 C 206.722656 236.777344 206.8125 237.382812 206.871094 237.992188 C 206.933594 238.605469 206.960938 239.21875 206.960938 239.832031 C 206.960938 240.445312 206.933594 241.054688 206.871094 241.667969 C 206.8125 242.277344 206.722656 242.882812 206.601562 243.484375 C 206.484375 244.085938 206.332031 244.683594 206.15625 245.269531 C 205.976562 245.855469 205.769531 246.433594 205.535156 247 C 205.300781 247.566406 205.039062 248.121094 204.75 248.664062 C 204.460938 249.203125 204.144531 249.730469 203.804688 250.238281 C 203.464844 250.75 203.097656 251.242188 202.710938 251.71875 C 202.320312 252.191406 201.910156 252.644531 201.472656 253.078125 C 201.039062 253.511719 200.585938 253.925781 200.113281 254.3125 C 199.636719 254.703125 199.144531 255.070312 198.636719 255.410156 C 198.125 255.75 197.597656 256.066406 197.058594 256.355469 C 196.515625 256.644531 195.960938 256.90625 195.394531 257.140625 C 194.828125 257.375 194.25 257.582031 193.664062 257.761719 C 193.078125 257.9375 192.484375 258.085938 191.882812 258.207031 C 191.277344 258.328125 190.671875 258.417969 190.0625 258.476562 C 189.453125 258.535156 188.839844 258.566406 188.226562 258.566406 C 187.613281 258.566406 187 258.535156 186.390625 258.476562 C 185.777344 258.417969 185.171875 258.328125 184.570312 258.207031 C 183.96875 258.085938 183.375 257.9375 182.785156 257.761719 C 182.199219 257.582031 181.621094 257.375 181.054688 257.140625 C 180.488281 256.90625 179.933594 256.644531 179.394531 256.355469 C 178.851562 256.066406 178.328125 255.75 177.816406 255.410156 C 177.304688 255.070312 176.8125 254.703125 176.339844 254.3125 C 175.863281 253.925781 175.410156 253.511719 174.976562 253.078125 C 174.542969 252.644531 174.128906 252.191406 173.742188 251.71875 C 173.351562 251.242188 172.984375 250.75 172.644531 250.242188 C 172.300781 249.730469 171.988281 249.207031 171.699219 248.664062 C 171.40625 248.125 171.144531 247.570312 170.910156 247.003906 C 170.675781 246.433594 170.46875 245.859375 170.289062 245.269531 C 170.113281 244.683594 169.960938 244.089844 169.84375 243.488281 C 169.722656 242.882812 169.632812 242.277344 169.570312 241.667969 C 169.511719 241.054688 169.480469 240.445312 169.480469 239.832031 C 169.480469 239.214844 169.511719 238.605469 169.570312 237.992188 C 169.632812 237.382812 169.722656 236.777344 169.84375 236.175781 C 169.960938 235.570312 170.113281 234.976562 170.289062 234.390625 C 170.46875 233.804688 170.675781 233.226562 170.910156 232.660156 C 171.144531 232.09375 171.40625 231.539062 171.699219 230.996094 C 171.988281 230.457031 172.300781 229.929688 172.644531 229.417969 C 172.984375 228.910156 173.351562 228.417969 173.742188 227.941406 C 174.128906 227.46875 174.542969 227.015625 174.976562 226.582031 C 176.789062 224.777344 178.796875 223.410156 181.113281 222.492188 L 181.113281 155.363281 C 178.882812 154.445312 176.789062 153.09375 174.976562 151.277344 C 174.324219 150.621094 173.71875 149.925781 173.167969 149.183594 C 172.617188 148.4375 172.125 147.660156 171.691406 146.84375 C 171.253906 146.027344 170.882812 145.1875 170.570312 144.316406 C 170.261719 143.445312 170.015625 142.554688 169.839844 141.648438 C 169.660156 140.742188 169.550781 139.824219 169.507812 138.902344 C 169.464844 137.980469 169.488281 137.058594 169.582031 136.136719 C 169.675781 135.21875 169.835938 134.308594 170.0625 133.414062 C 170.292969 132.519531 170.585938 131.644531 170.941406 130.792969 L 143.207031 103.070312 L 70.011719 176.191406 C 69.277344 176.921875 68.625 177.71875 68.050781 178.578125 C 67.476562 179.4375 66.988281 180.34375 66.59375 181.300781 C 66.195312 182.253906 65.898438 183.242188 65.695312 184.253906 C 65.496094 185.269531 65.394531 186.292969 65.394531 187.328125 C 65.394531 188.363281 65.496094 189.386719 65.695312 190.402344 C 65.898438 191.414062 66.195312 192.398438 66.59375 193.355469 C 66.988281 194.3125 67.476562 195.21875 68.050781 196.078125 C 68.625 196.9375 69.277344 197.734375 70.011719 198.464844 L 176.765625 305.203125 C 177.496094 305.933594 178.289062 306.585938 179.148438 307.164062 C 180.007812 307.738281 180.917969 308.222656 181.871094 308.617188 C 182.828125 309.011719 183.8125 309.3125 184.824219 309.515625 C 185.839844 309.714844 186.863281 309.816406 187.898438 309.816406 C 188.929688 309.816406 189.953125 309.714844 190.96875 309.515625 C 191.984375 309.3125 192.96875 309.011719 193.921875 308.617188 C 194.878906 308.222656 195.785156 307.738281 196.644531 307.164062 C 197.503906 306.585938 198.296875 305.933594 199.03125 305.203125 L 305.289062 199.113281 C 306.019531 198.382812 306.671875 197.585938 307.246094 196.726562 C 307.824219 195.867188 308.308594 194.960938 308.703125 194.003906 C 309.101562 193.050781 309.398438 192.066406 309.601562 191.050781 C 309.804688 190.035156 309.90625 189.011719 309.90625 187.976562 C 309.90625 186.941406 309.804688 185.917969 309.601562 184.90625 C 309.398438 183.890625 309.101562 182.90625 308.703125 181.949219 C 308.308594 180.996094 307.824219 180.085938 307.246094 179.226562 C 306.671875 178.367188 306.019531 177.570312 305.289062 176.839844 " fill-opacity="1" fill-rule="nonzero"/></g></svg>