<svg xmlns="http://www.w3.org/2000/svg" xmlns:xlink="http://www.w3.org/1999/xlink" width="500" zoomAndPan="magnify" viewBox="0 0 375 374.999991" height="500" preserveAspectRatio="xMidYMid meet" version="1.0"><defs><clipPath id="23a6e411ca"><path d="M 77.605469 62.101562 L 297.355469 62.101562 L 297.355469 312 L 77.605469 312 Z M 77.605469 62.101562 " clip-rule="nonzero"/></clipPath></defs><g clip-path="url(#23a6e411ca)"><path fill="#e44d26" d="M 97.550781 287.007812 L 77.542969 62.800781 L 297.414062 62.800781 L 277.390625 286.976562 L 187.339844 311.90625 Z M 97.550781 287.007812 " fill-opacity="1" fill-rule="nonzero"/></g><path fill="#f16529" d="M 260.238281 272.699219 L 277.359375 81.136719 L 187.480469 81.136719 L 187.480469 292.855469 Z M 260.238281 272.699219 " fill-opacity="1" fill-rule="nonzero"/><path fill="#ebebeb" d="M 187.386719 108.628906 L 118.453125 108.628906 L 125.878906 191.785156 L 187.480469 191.785156 L 187.480469 164.292969 L 151.054688 164.292969 L 148.539062 136.132812 L 187.480469 136.132812 L 187.480469 108.628906 Z M 187.480469 235.613281 L 187.363281 235.644531 L 156.707031 227.378906 L 154.757812 205.449219 L 127.109375 205.449219 L 130.96875 248.621094 L 187.355469 264.191406 L 187.480469 264.152344 Z M 187.480469 235.613281 " fill-opacity="1" fill-rule="nonzero"/><path fill="#ffffff" d="M 187.386719 191.785156 L 221.28125 191.785156 L 218.164062 227.441406 L 187.464844 235.714844 L 187.464844 264.324219 L 243.898438 248.699219 L 251.457031 164.277344 L 187.480469 164.277344 Z M 255.679688 116.011719 L 256.332031 108.628906 L 187.371094 108.628906 L 187.371094 136.125 L 253.855469 136.125 L 254.402344 129.945312 Z M 255.679688 116.011719 " fill-opacity="1" fill-rule="nonzero"/></svg>