<svg xmlns="http://www.w3.org/2000/svg" xmlns:xlink="http://www.w3.org/1999/xlink" width="500" zoomAndPan="magnify" viewBox="0 0 375 374.999991" height="500" preserveAspectRatio="xMidYMid meet" version="1.0"><defs><clipPath id="a02723475b"><path d="M 69.421875 55.566406 L 305.671875 55.566406 L 305.671875 319.566406 L 69.421875 319.566406 Z M 69.421875 55.566406 " clip-rule="nonzero"/></clipPath></defs><g clip-path="url(#a02723475b)"><path fill="#0277bd" d="M 305.636719 55.566406 L 69.457031 55.566406 L 90.296875 291.777344 L 187.546875 319.566406 L 284.796875 291.777344 Z M 305.636719 55.566406 " fill-opacity="1" fill-rule="nonzero"/></g><path fill="#039be5" d="M 187.546875 76.410156 L 187.546875 298.03125 L 265.34375 275.800781 L 282.710938 76.410156 Z M 187.546875 76.410156 " fill-opacity="1" fill-rule="nonzero"/><path fill="#ffffff" d="M 250.757812 111.148438 L 187.546875 111.148438 L 187.546875 138.9375 L 221.582031 138.9375 L 219.5 166.726562 L 187.546875 166.726562 L 187.546875 194.515625 L 218.109375 194.515625 L 216.027344 225.777344 L 187.546875 235.503906 L 187.546875 264.683594 L 242.421875 246.621094 L 247.285156 166.726562 Z M 250.757812 111.148438 " fill-opacity="1" fill-rule="nonzero"/><path fill="#eeeeee" d="M 187.546875 111.148438 L 187.546875 138.9375 L 125.722656 138.9375 L 123.636719 111.148438 Z M 155.59375 166.726562 L 156.980469 194.515625 L 187.546875 194.515625 L 187.546875 166.726562 Z M 158.371094 208.410156 L 130.585938 208.410156 L 132.667969 246.621094 L 187.546875 264.683594 L 187.546875 235.503906 L 159.066406 225.777344 Z M 158.371094 208.410156 " fill-opacity="1" fill-rule="nonzero"/></svg>