<svg xmlns="http://www.w3.org/2000/svg" xmlns:xlink="http://www.w3.org/1999/xlink" width="500" zoomAndPan="magnify" viewBox="0 0 375 374.999991" height="500" preserveAspectRatio="xMidYMid meet" version="1.0"><defs><clipPath id="3d3fd904ed"><path d="M 55.566406 55.566406 L 319.566406 55.566406 L 319.566406 319.566406 L 55.566406 319.566406 Z M 55.566406 55.566406 " clip-rule="nonzero"/></clipPath></defs><g clip-path="url(#3d3fd904ed)"><path fill="#f7df1e" d="M 55.566406 55.566406 L 319.566406 55.566406 L 319.566406 319.566406 L 55.566406 319.566406 Z M 55.566406 55.566406 " fill-opacity="1" fill-rule="nonzero"/></g><path fill="#000000" d="M 124.984375 276.183594 L 145.1875 263.960938 C 149.082031 270.871094 152.628906 276.71875 161.136719 276.71875 C 169.285156 276.71875 174.429688 273.523438 174.429688 261.125 L 174.429688 176.769531 L 199.230469 176.769531 L 199.230469 261.476562 C 199.230469 287.164062 184.175781 298.871094 162.199219 298.871094 C 142.351562 298.871094 130.832031 288.589844 124.980469 276.183594 " fill-opacity="1" fill-rule="nonzero"/><path fill="#000000" d="M 212.710938 273.523438 L 232.910156 261.828125 C 238.234375 270.511719 245.140625 276.894531 257.363281 276.894531 C 267.644531 276.894531 274.203125 271.757812 274.203125 264.664062 C 274.203125 256.15625 267.46875 253.144531 256.125 248.183594 L 249.925781 245.523438 C 232.023438 237.902344 220.15625 228.34375 220.15625 208.128906 C 220.15625 189.527344 234.324219 175.347656 256.484375 175.347656 C 272.253906 175.347656 283.597656 180.84375 291.746094 195.199219 L 272.429688 207.605469 C 268.179688 199.984375 263.570312 196.972656 256.484375 196.972656 C 249.214844 196.972656 244.605469 201.582031 244.605469 207.605469 C 244.605469 215.050781 249.214844 218.0625 259.847656 222.671875 L 266.046875 225.320312 C 287.136719 234.367188 299.015625 243.574219 299.015625 264.3125 C 299.015625 286.640625 281.472656 298.871094 257.898438 298.871094 C 234.859375 298.871094 219.980469 287.878906 212.710938 273.523438 " fill-opacity="1" fill-rule="nonzero"/></svg>