<svg xmlns="http://www.w3.org/2000/svg" xmlns:xlink="http://www.w3.org/1999/xlink" width="500" zoomAndPan="magnify" viewBox="0 0 375 374.999991" height="500" preserveAspectRatio="xMidYMid meet" version="1.0"><defs><clipPath id="d18ee3dbfd"><path d="M 78.242188 78.242188 L 296.492188 78.242188 L 296.492188 296.492188 L 78.242188 296.492188 Z M 78.242188 78.242188 " clip-rule="nonzero"/></clipPath></defs><g clip-path="url(#d18ee3dbfd)"><path fill="#ffffff" d="M 260.117188 296.492188 L 114.617188 296.492188 C 113.429688 296.492188 112.238281 296.433594 111.054688 296.316406 C 109.871094 296.199219 108.691406 296.023438 107.523438 295.789062 C 106.355469 295.554688 105.203125 295.265625 104.0625 294.917969 C 102.925781 294.574219 101.804688 294.171875 100.703125 293.714844 C 99.605469 293.257812 98.527344 292.75 97.480469 292.1875 C 96.429688 291.625 95.410156 291.015625 94.417969 290.351562 C 93.429688 289.691406 92.472656 288.980469 91.550781 288.226562 C 90.632812 287.46875 89.75 286.671875 88.910156 285.828125 C 88.066406 284.988281 87.265625 284.105469 86.511719 283.183594 C 85.757812 282.265625 85.046875 281.308594 84.386719 280.320312 C 83.722656 279.328125 83.113281 278.308594 82.550781 277.257812 C 81.988281 276.207031 81.480469 275.132812 81.023438 274.035156 C 80.566406 272.933594 80.164062 271.8125 79.816406 270.675781 C 79.472656 269.535156 79.183594 268.378906 78.949219 267.210938 C 78.714844 266.042969 78.539062 264.867188 78.421875 263.683594 C 78.304688 262.496094 78.246094 261.308594 78.242188 260.117188 L 78.242188 114.617188 C 78.246094 113.429688 78.304688 112.238281 78.421875 111.054688 C 78.539062 109.871094 78.714844 108.691406 78.949219 107.523438 C 79.183594 106.355469 79.472656 105.203125 79.816406 104.0625 C 80.164062 102.925781 80.566406 101.804688 81.023438 100.703125 C 81.480469 99.605469 81.988281 98.527344 82.550781 97.480469 C 83.113281 96.429688 83.722656 95.410156 84.386719 94.417969 C 85.046875 93.429688 85.757812 92.472656 86.511719 91.550781 C 87.265625 90.632812 88.066406 89.75 88.910156 88.910156 C 89.75 88.066406 90.632812 87.265625 91.550781 86.511719 C 92.472656 85.757812 93.429688 85.046875 94.417969 84.386719 C 95.410156 83.722656 96.429688 83.113281 97.480469 82.550781 C 98.527344 81.988281 99.605469 81.480469 100.703125 81.023438 C 101.804688 80.566406 102.925781 80.164062 104.0625 79.816406 C 105.203125 79.472656 106.355469 79.183594 107.523438 78.949219 C 108.691406 78.714844 109.871094 78.539062 111.054688 78.421875 C 112.238281 78.304688 113.429688 78.246094 114.617188 78.242188 L 260.117188 78.242188 C 261.308594 78.246094 262.496094 78.304688 263.683594 78.421875 C 264.867188 78.539062 266.042969 78.714844 267.210938 78.949219 C 268.378906 79.183594 269.535156 79.472656 270.675781 79.816406 C 271.8125 80.164062 272.933594 80.566406 274.035156 81.023438 C 275.132812 81.480469 276.207031 81.988281 277.257812 82.550781 C 278.308594 83.113281 279.328125 83.722656 280.320312 84.386719 C 281.308594 85.046875 282.265625 85.757812 283.183594 86.511719 C 284.105469 87.265625 284.988281 88.066406 285.828125 88.910156 C 286.671875 89.75 287.46875 90.632812 288.226562 91.550781 C 288.980469 92.472656 289.691406 93.429688 290.351562 94.417969 C 291.015625 95.410156 291.625 96.429688 292.1875 97.480469 C 292.75 98.527344 293.257812 99.605469 293.714844 100.703125 C 294.171875 101.804688 294.574219 102.925781 294.917969 104.0625 C 295.265625 105.203125 295.554688 106.355469 295.789062 107.523438 C 296.023438 108.691406 296.199219 109.871094 296.316406 111.054688 C 296.433594 112.238281 296.492188 113.429688 296.492188 114.617188 L 296.492188 260.117188 C 296.492188 261.308594 296.433594 262.496094 296.316406 263.683594 C 296.199219 264.867188 296.023438 266.042969 295.789062 267.210938 C 295.554688 268.378906 295.265625 269.535156 294.917969 270.675781 C 294.574219 271.8125 294.171875 272.933594 293.714844 274.035156 C 293.257812 275.132812 292.75 276.207031 292.1875 277.257812 C 291.625 278.308594 291.015625 279.328125 290.351562 280.320312 C 289.691406 281.308594 288.980469 282.265625 288.226562 283.183594 C 287.46875 284.105469 286.671875 284.988281 285.828125 285.828125 C 284.988281 286.671875 284.105469 287.46875 283.183594 288.226562 C 282.265625 288.980469 281.308594 289.691406 280.320312 290.351562 C 279.328125 291.015625 278.308594 291.625 277.257812 292.1875 C 276.207031 292.75 275.132812 293.257812 274.035156 293.714844 C 272.933594 294.171875 271.8125 294.574219 270.675781 294.917969 C 269.535156 295.265625 268.378906 295.554688 267.210938 295.789062 C 266.042969 296.023438 264.867188 296.199219 263.683594 296.316406 C 262.496094 296.433594 261.308594 296.492188 260.117188 296.492188 Z M 114.617188 102.492188 C 113.824219 102.492188 113.035156 102.570312 112.253906 102.726562 C 111.472656 102.882812 110.714844 103.113281 109.980469 103.417969 C 109.242188 103.722656 108.542969 104.09375 107.882812 104.539062 C 107.21875 104.980469 106.609375 105.480469 106.046875 106.046875 C 105.480469 106.609375 104.980469 107.21875 104.539062 107.882812 C 104.09375 108.542969 103.722656 109.242188 103.417969 109.980469 C 103.113281 110.714844 102.882812 111.472656 102.726562 112.253906 C 102.570312 113.035156 102.492188 113.824219 102.492188 114.617188 L 102.492188 260.117188 C 102.492188 260.914062 102.570312 261.703125 102.726562 262.484375 C 102.882812 263.265625 103.113281 264.023438 103.417969 264.757812 C 103.722656 265.496094 104.09375 266.191406 104.539062 266.855469 C 104.980469 267.515625 105.480469 268.128906 106.046875 268.691406 C 106.609375 269.253906 107.21875 269.757812 107.882812 270.199219 C 108.542969 270.644531 109.242188 271.015625 109.980469 271.320312 C 110.714844 271.625 111.472656 271.855469 112.253906 272.011719 C 113.035156 272.167969 113.824219 272.242188 114.617188 272.242188 L 260.117188 272.242188 C 260.914062 272.242188 261.703125 272.167969 262.484375 272.011719 C 263.265625 271.855469 264.023438 271.625 264.757812 271.320312 C 265.496094 271.015625 266.191406 270.644531 266.855469 270.199219 C 267.515625 269.757812 268.128906 269.253906 268.691406 268.691406 C 269.253906 268.128906 269.757812 267.515625 270.199219 266.855469 C 270.644531 266.191406 271.015625 265.496094 271.320312 264.757812 C 271.625 264.023438 271.855469 263.265625 272.011719 262.484375 C 272.167969 261.703125 272.242188 260.914062 272.242188 260.117188 L 272.242188 114.617188 C 272.242188 113.824219 272.167969 113.035156 272.011719 112.253906 C 271.855469 111.472656 271.625 110.714844 271.320312 109.980469 C 271.015625 109.242188 270.644531 108.542969 270.199219 107.882812 C 269.757812 107.21875 269.253906 106.609375 268.691406 106.046875 C 268.128906 105.480469 267.515625 104.980469 266.855469 104.539062 C 266.191406 104.09375 265.496094 103.722656 264.757812 103.417969 C 264.023438 103.113281 263.265625 102.882812 262.484375 102.726562 C 261.703125 102.570312 260.914062 102.492188 260.117188 102.492188 Z M 114.617188 102.492188 " fill-opacity="1" fill-rule="nonzero"/></g><path fill="#ffffff" d="M 138.867188 247.992188 C 138.074219 247.992188 137.285156 247.917969 136.503906 247.761719 C 135.722656 247.605469 134.964844 247.375 134.230469 247.070312 C 133.492188 246.765625 132.792969 246.394531 132.132812 245.949219 C 131.46875 245.507812 130.859375 245.003906 130.296875 244.441406 C 129.730469 243.878906 129.230469 243.265625 128.789062 242.605469 C 128.34375 241.941406 127.972656 241.246094 127.667969 240.507812 C 127.363281 239.773438 127.132812 239.015625 126.976562 238.234375 C 126.820312 237.453125 126.742188 236.664062 126.742188 235.867188 L 126.742188 175.242188 C 126.742188 174.449219 126.820312 173.660156 126.976562 172.878906 C 127.132812 172.097656 127.363281 171.339844 127.667969 170.605469 C 127.972656 169.867188 128.34375 169.167969 128.789062 168.507812 C 129.230469 167.84375 129.730469 167.234375 130.296875 166.671875 C 130.859375 166.105469 131.46875 165.605469 132.132812 165.164062 C 132.792969 164.71875 133.492188 164.347656 134.230469 164.042969 C 134.964844 163.738281 135.722656 163.507812 136.503906 163.351562 C 137.285156 163.195312 138.074219 163.117188 138.867188 163.117188 C 139.664062 163.117188 140.453125 163.195312 141.234375 163.351562 C 142.015625 163.507812 142.773438 163.738281 143.507812 164.042969 C 144.246094 164.347656 144.941406 164.71875 145.605469 165.164062 C 146.265625 165.605469 146.878906 166.105469 147.441406 166.671875 C 148.003906 167.234375 148.507812 167.84375 148.949219 168.507812 C 149.394531 169.167969 149.765625 169.867188 150.070312 170.605469 C 150.375 171.339844 150.605469 172.097656 150.761719 172.878906 C 150.917969 173.660156 150.992188 174.449219 150.992188 175.242188 L 150.992188 235.867188 C 150.992188 236.664062 150.917969 237.453125 150.761719 238.234375 C 150.605469 239.015625 150.375 239.773438 150.070312 240.507812 C 149.765625 241.246094 149.394531 241.941406 148.949219 242.605469 C 148.507812 243.265625 148.003906 243.878906 147.441406 244.441406 C 146.878906 245.003906 146.265625 245.507812 145.605469 245.949219 C 144.941406 246.394531 144.246094 246.765625 143.507812 247.070312 C 142.773438 247.375 142.015625 247.605469 141.234375 247.761719 C 140.453125 247.917969 139.664062 247.992188 138.867188 247.992188 Z M 138.867188 247.992188 " fill-opacity="1" fill-rule="nonzero"/><path fill="#ffffff" d="M 138.867188 151.113281 C 138.070312 151.117188 137.28125 151.042969 136.5 150.886719 C 135.71875 150.734375 134.957031 150.507812 134.21875 150.203125 C 133.480469 149.898438 132.78125 149.527344 132.117188 149.085938 C 131.453125 148.648438 130.835938 148.144531 130.273438 147.582031 C 129.707031 147.019531 129.199219 146.410156 128.757812 145.75 C 128.3125 145.085938 127.933594 144.386719 127.625 143.652344 C 127.320312 142.917969 127.085938 142.160156 126.925781 141.378906 C 126.769531 140.597656 126.6875 139.808594 126.683594 139.011719 C 126.679688 138.210938 126.753906 137.421875 126.90625 136.640625 C 127.058594 135.859375 127.285156 135.097656 127.585938 134.359375 C 127.890625 133.621094 128.261719 132.921875 128.699219 132.253906 C 129.140625 131.589844 129.640625 130.972656 130.199219 130.40625 C 130.761719 129.839844 131.371094 129.335938 132.035156 128.886719 C 132.695312 128.441406 133.390625 128.0625 134.125 127.753906 C 134.863281 127.445312 135.621094 127.210938 136.402344 127.050781 C 137.183594 126.890625 137.972656 126.808594 138.769531 126.804688 C 139.566406 126.800781 140.355469 126.875 141.136719 127.023438 C 141.921875 127.175781 142.683594 127.402344 143.421875 127.699219 C 144.160156 128 144.859375 128.371094 145.527344 128.808594 C 146.191406 129.25 146.808594 129.746094 147.375 130.308594 C 147.945312 130.867188 148.453125 131.476562 148.898438 132.136719 C 149.347656 132.796875 149.726562 133.496094 150.035156 134.230469 C 150.347656 134.964844 150.582031 135.722656 150.742188 136.5 C 150.90625 137.28125 150.988281 138.070312 150.992188 138.867188 L 150.992188 138.988281 C 150.992188 139.785156 150.917969 140.574219 150.761719 141.355469 C 150.605469 142.136719 150.375 142.894531 150.070312 143.628906 C 149.765625 144.367188 149.394531 145.0625 148.949219 145.726562 C 148.507812 146.386719 148.003906 147 147.441406 147.5625 C 146.878906 148.125 146.265625 148.628906 145.605469 149.070312 C 144.941406 149.515625 144.246094 149.886719 143.507812 150.191406 C 142.773438 150.496094 142.015625 150.726562 141.234375 150.882812 C 140.453125 151.039062 139.664062 151.113281 138.867188 151.113281 Z M 138.867188 151.113281 " fill-opacity="1" fill-rule="nonzero"/><path fill="#ffffff" d="M 187.367188 247.992188 C 186.574219 247.992188 185.785156 247.917969 185.003906 247.761719 C 184.222656 247.605469 183.464844 247.375 182.730469 247.070312 C 181.992188 246.765625 181.292969 246.394531 180.632812 245.949219 C 179.96875 245.507812 179.359375 245.003906 178.796875 244.441406 C 178.230469 243.878906 177.730469 243.265625 177.289062 242.605469 C 176.84375 241.941406 176.472656 241.246094 176.167969 240.507812 C 175.863281 239.773438 175.632812 239.015625 175.476562 238.234375 C 175.320312 237.453125 175.242188 236.664062 175.242188 235.867188 L 175.242188 175.242188 C 175.242188 174.449219 175.320312 173.660156 175.476562 172.878906 C 175.632812 172.097656 175.863281 171.339844 176.167969 170.605469 C 176.472656 169.867188 176.84375 169.167969 177.289062 168.507812 C 177.730469 167.84375 178.230469 167.234375 178.796875 166.671875 C 179.359375 166.105469 179.96875 165.605469 180.632812 165.164062 C 181.292969 164.71875 181.992188 164.347656 182.730469 164.042969 C 183.464844 163.738281 184.222656 163.507812 185.003906 163.351562 C 185.785156 163.195312 186.574219 163.117188 187.367188 163.117188 C 188.164062 163.117188 188.953125 163.195312 189.734375 163.351562 C 190.515625 163.507812 191.273438 163.738281 192.007812 164.042969 C 192.746094 164.347656 193.441406 164.71875 194.105469 165.164062 C 194.765625 165.605469 195.378906 166.105469 195.941406 166.671875 C 196.503906 167.234375 197.007812 167.84375 197.449219 168.507812 C 197.894531 169.167969 198.265625 169.867188 198.570312 170.605469 C 198.875 171.339844 199.105469 172.097656 199.261719 172.878906 C 199.417969 173.660156 199.492188 174.449219 199.492188 175.242188 L 199.492188 235.867188 C 199.492188 236.664062 199.417969 237.453125 199.261719 238.234375 C 199.105469 239.015625 198.875 239.773438 198.570312 240.507812 C 198.265625 241.246094 197.894531 241.941406 197.449219 242.605469 C 197.007812 243.265625 196.503906 243.878906 195.941406 244.441406 C 195.378906 245.003906 194.765625 245.507812 194.105469 245.949219 C 193.441406 246.394531 192.746094 246.765625 192.007812 247.070312 C 191.273438 247.375 190.515625 247.605469 189.734375 247.761719 C 188.953125 247.917969 188.164062 247.992188 187.367188 247.992188 Z M 187.367188 247.992188 " fill-opacity="1" fill-rule="nonzero"/><path fill="#ffffff" d="M 235.867188 247.992188 C 235.074219 247.992188 234.285156 247.917969 233.503906 247.761719 C 232.722656 247.605469 231.964844 247.375 231.230469 247.070312 C 230.492188 246.765625 229.792969 246.394531 229.132812 245.949219 C 228.46875 245.507812 227.859375 245.003906 227.296875 244.441406 C 226.730469 243.878906 226.230469 243.265625 225.789062 242.605469 C 225.34375 241.941406 224.972656 241.246094 224.667969 240.507812 C 224.363281 239.773438 224.132812 239.015625 223.976562 238.234375 C 223.820312 237.453125 223.742188 236.664062 223.742188 235.867188 L 223.742188 199.492188 C 223.742188 198.699219 223.667969 197.910156 223.511719 197.128906 C 223.355469 196.347656 223.125 195.589844 222.820312 194.855469 C 222.515625 194.117188 222.144531 193.417969 221.699219 192.757812 C 221.257812 192.09375 220.753906 191.484375 220.191406 190.921875 C 219.628906 190.355469 219.015625 189.855469 218.355469 189.414062 C 217.691406 188.96875 216.996094 188.597656 216.257812 188.292969 C 215.523438 187.988281 214.765625 187.757812 213.984375 187.601562 C 213.203125 187.445312 212.414062 187.367188 211.617188 187.367188 C 210.824219 187.367188 210.035156 187.445312 209.253906 187.601562 C 208.472656 187.757812 207.714844 187.988281 206.980469 188.292969 C 206.242188 188.597656 205.542969 188.96875 204.882812 189.414062 C 204.21875 189.855469 203.609375 190.355469 203.046875 190.921875 C 202.480469 191.484375 201.980469 192.09375 201.539062 192.757812 C 201.09375 193.417969 200.722656 194.117188 200.417969 194.855469 C 200.113281 195.589844 199.882812 196.347656 199.726562 197.128906 C 199.570312 197.910156 199.492188 198.699219 199.492188 199.492188 C 199.492188 200.289062 199.417969 201.078125 199.261719 201.859375 C 199.105469 202.640625 198.875 203.398438 198.570312 204.132812 C 198.265625 204.871094 197.894531 205.566406 197.449219 206.230469 C 197.007812 206.890625 196.503906 207.503906 195.941406 208.066406 C 195.378906 208.628906 194.765625 209.132812 194.105469 209.574219 C 193.441406 210.019531 192.746094 210.390625 192.007812 210.695312 C 191.273438 211 190.515625 211.230469 189.734375 211.386719 C 188.953125 211.542969 188.164062 211.617188 187.367188 211.617188 C 186.574219 211.617188 185.785156 211.542969 185.003906 211.386719 C 184.222656 211.230469 183.464844 211 182.730469 210.695312 C 181.992188 210.390625 181.292969 210.019531 180.632812 209.574219 C 179.96875 209.132812 179.359375 208.628906 178.796875 208.066406 C 178.230469 207.503906 177.730469 206.890625 177.289062 206.230469 C 176.84375 205.566406 176.472656 204.871094 176.167969 204.132812 C 175.863281 203.398438 175.632812 202.640625 175.476562 201.859375 C 175.320312 201.078125 175.242188 200.289062 175.242188 199.492188 C 175.242188 198.300781 175.300781 197.113281 175.417969 195.929688 C 175.535156 194.742188 175.710938 193.566406 175.941406 192.398438 C 176.175781 191.230469 176.464844 190.074219 176.808594 188.933594 C 177.15625 187.792969 177.558594 186.675781 178.011719 185.574219 C 178.46875 184.472656 178.976562 183.398438 179.539062 182.347656 C 180.101562 181.296875 180.710938 180.277344 181.375 179.285156 C 182.035156 178.292969 182.746094 177.339844 183.5 176.417969 C 184.257812 175.496094 185.054688 174.617188 185.898438 173.773438 C 186.742188 172.929688 187.621094 172.132812 188.542969 171.375 C 189.464844 170.621094 190.417969 169.910156 191.410156 169.25 C 192.402344 168.585938 193.421875 167.976562 194.472656 167.414062 C 195.523438 166.851562 196.597656 166.34375 197.699219 165.886719 C 198.800781 165.433594 199.917969 165.03125 201.058594 164.683594 C 202.199219 164.339844 203.355469 164.050781 204.523438 163.816406 C 205.691406 163.585938 206.867188 163.410156 208.054688 163.292969 C 209.238281 163.175781 210.425781 163.117188 211.617188 163.117188 C 212.808594 163.117188 214 163.175781 215.183594 163.292969 C 216.371094 163.410156 217.546875 163.585938 218.714844 163.816406 C 219.882812 164.050781 221.039062 164.339844 222.179688 164.683594 C 223.316406 165.03125 224.4375 165.433594 225.539062 165.886719 C 226.640625 166.34375 227.714844 166.851562 228.765625 167.414062 C 229.816406 167.976562 230.835938 168.585938 231.828125 169.25 C 232.816406 169.910156 233.773438 170.621094 234.695312 171.375 C 235.617188 172.132812 236.496094 172.929688 237.339844 173.773438 C 238.183594 174.617188 238.980469 175.496094 239.738281 176.417969 C 240.492188 177.339844 241.203125 178.292969 241.863281 179.285156 C 242.527344 180.277344 243.136719 181.296875 243.699219 182.347656 C 244.261719 183.398438 244.769531 184.472656 245.226562 185.574219 C 245.679688 186.675781 246.082031 187.792969 246.425781 188.933594 C 246.773438 190.074219 247.0625 191.230469 247.292969 192.398438 C 247.527344 193.566406 247.703125 194.742188 247.820312 195.929688 C 247.933594 197.113281 247.992188 198.300781 247.992188 199.492188 L 247.992188 235.867188 C 247.992188 236.664062 247.917969 237.453125 247.761719 238.234375 C 247.605469 239.015625 247.375 239.773438 247.070312 240.507812 C 246.765625 241.246094 246.394531 241.941406 245.949219 242.605469 C 245.507812 243.265625 245.003906 243.878906 244.441406 244.441406 C 243.878906 245.003906 243.265625 245.507812 242.605469 245.949219 C 241.941406 246.394531 241.246094 246.765625 240.507812 247.070312 C 239.773438 247.375 239.015625 247.605469 238.234375 247.761719 C 237.453125 247.917969 236.664062 247.992188 235.867188 247.992188 Z M 235.867188 247.992188 " fill-opacity="1" fill-rule="nonzero"/></svg>