<svg xmlns="http://www.w3.org/2000/svg" xmlns:xlink="http://www.w3.org/1999/xlink" width="500" zoomAndPan="magnify" viewBox="0 0 375 374.999991" height="500" preserveAspectRatio="xMidYMid meet" version="1.0"><defs><clipPath id="ebf1ad1032"><path d="M 55.566406 70 L 319.566406 70 L 319.566406 305 L 55.566406 305 Z M 55.566406 70 " clip-rule="nonzero"/></clipPath></defs><g clip-path="url(#ebf1ad1032)"><path fill="#00d8ff" d="M 272.449219 146.378906 C 269.722656 145.4375 266.890625 144.546875 263.96875 143.703125 C 264.453125 141.746094 264.894531 139.8125 265.285156 137.914062 C 271.699219 106.726562 267.511719 81.601562 253.175781 73.332031 C 239.425781 65.398438 216.949219 73.667969 194.246094 93.441406 C 192.066406 95.34375 189.871094 97.355469 187.691406 99.464844 C 186.230469 98.066406 184.777344 96.71875 183.328125 95.429688 C 159.535156 74.289062 135.6875 65.378906 121.367188 73.675781 C 107.636719 81.632812 103.570312 105.25 109.347656 134.804688 C 109.90625 137.660156 110.558594 140.578125 111.296875 143.539062 C 107.921875 144.5 104.664062 145.519531 101.546875 146.609375 C 73.652344 156.339844 55.839844 171.59375 55.839844 187.414062 C 55.839844 203.75 74.964844 220.144531 104.015625 230.085938 C 106.308594 230.867188 108.6875 231.609375 111.136719 232.308594 C 110.34375 235.511719 109.652344 238.652344 109.070312 241.722656 C 103.558594 270.765625 107.863281 293.824219 121.558594 301.726562 C 135.699219 309.890625 159.441406 301.5 182.554688 281.28125 C 184.386719 279.683594 186.21875 277.984375 188.050781 276.214844 C 190.4375 278.5 192.816406 280.675781 195.171875 282.714844 C 217.566406 301.992188 239.683594 309.777344 253.359375 301.859375 C 267.488281 293.671875 272.089844 268.890625 266.121094 238.757812 C 265.667969 236.449219 265.132812 234.101562 264.546875 231.710938 C 266.214844 231.21875 267.847656 230.703125 269.445312 230.175781 C 299.648438 220.15625 319.296875 203.976562 319.296875 187.414062 C 319.296875 171.535156 300.90625 156.179688 272.449219 146.378906 Z M 265.90625 219.488281 C 264.464844 219.960938 262.980469 220.425781 261.480469 220.867188 C 258.144531 210.3125 253.648438 199.074219 248.132812 187.46875 C 253.390625 176.136719 257.710938 165.050781 260.953125 154.554688 C 263.652344 155.335938 266.265625 156.160156 268.785156 157.027344 C 293.164062 165.425781 308.035156 177.847656 308.035156 187.414062 C 308.035156 197.601562 291.984375 210.835938 265.90625 219.488281 Z M 255.078125 240.941406 C 257.722656 254.265625 258.09375 266.316406 256.34375 275.742188 C 254.78125 284.207031 251.621094 289.851562 247.71875 292.105469 C 239.414062 296.914062 221.664062 290.664062 202.519531 274.175781 C 200.320312 272.28125 198.105469 270.261719 195.894531 268.128906 C 203.3125 260.003906 210.734375 250.558594 217.976562 240.066406 C 230.707031 238.941406 242.738281 237.089844 253.65625 234.566406 C 254.191406 236.738281 254.667969 238.859375 255.078125 240.941406 Z M 145.660156 291.273438 C 137.550781 294.144531 131.089844 294.226562 127.183594 291.972656 C 118.875 287.171875 115.417969 268.65625 120.132812 243.824219 C 120.671875 240.980469 121.3125 238.054688 122.054688 235.070312 C 132.847656 237.457031 144.792969 239.179688 157.558594 240.207031 C 164.847656 250.476562 172.484375 259.910156 180.171875 268.171875 C 178.496094 269.796875 176.816406 271.34375 175.148438 272.796875 C 164.929688 281.746094 154.6875 288.089844 145.660156 291.273438 Z M 107.660156 219.425781 C 94.8125 215.027344 84.203125 209.320312 76.933594 203.082031 C 70.398438 197.488281 67.097656 191.925781 67.097656 187.414062 C 67.097656 177.816406 81.398438 165.566406 105.253906 157.246094 C 108.148438 156.234375 111.179688 155.28125 114.324219 154.390625 C 117.621094 165.121094 121.945312 176.34375 127.164062 187.683594 C 121.875 199.199219 117.492188 210.597656 114.160156 221.464844 C 111.921875 220.816406 109.75 220.136719 107.660156 219.425781 Z M 120.398438 132.644531 C 115.445312 107.320312 118.734375 88.21875 127.011719 83.425781 C 135.824219 78.316406 155.3125 85.597656 175.851562 103.851562 C 177.167969 105.019531 178.484375 106.238281 179.8125 107.503906 C 172.15625 115.730469 164.589844 125.09375 157.363281 135.296875 C 144.972656 136.449219 133.113281 138.292969 122.210938 140.765625 C 121.523438 138.007812 120.917969 135.292969 120.398438 132.644531 Z M 234.035156 160.726562 C 231.429688 156.21875 228.753906 151.820312 226.027344 147.539062 C 234.433594 148.605469 242.484375 150.015625 250.046875 151.742188 C 247.78125 159.023438 244.953125 166.640625 241.617188 174.449219 C 239.230469 169.90625 236.699219 165.328125 234.035156 160.726562 Z M 187.691406 115.554688 C 192.890625 121.179688 198.085938 127.464844 203.199219 134.28125 C 198.046875 134.039062 192.828125 133.914062 187.570312 133.914062 C 182.363281 133.914062 177.183594 134.035156 172.058594 134.277344 C 177.175781 127.523438 182.421875 121.246094 187.691406 115.554688 Z M 141.054688 160.804688 C 138.449219 165.320312 135.96875 169.875 133.617188 174.4375 C 130.339844 166.660156 127.535156 159.011719 125.246094 151.625 C 132.761719 149.941406 140.777344 148.5625 149.132812 147.519531 C 146.363281 151.839844 143.664062 156.269531 141.054688 160.804688 Z M 149.371094 228.105469 C 140.742188 227.148438 132.605469 225.839844 125.089844 224.203125 C 127.417969 216.6875 130.28125 208.878906 133.628906 200.929688 C 135.988281 205.492188 138.480469 210.042969 141.097656 214.574219 L 141.101562 214.574219 C 143.769531 219.1875 146.535156 223.699219 149.371094 228.105469 Z M 188 260.066406 C 182.671875 254.308594 177.347656 247.933594 172.152344 241.085938 C 177.195312 241.28125 182.339844 241.382812 187.570312 241.382812 C 192.941406 241.382812 198.25 241.257812 203.46875 241.03125 C 198.34375 248.003906 193.15625 254.390625 188 260.066406 Z M 241.722656 200.527344 C 245.242188 208.558594 248.214844 216.324219 250.570312 223.71875 C 242.933594 225.460938 234.683594 226.859375 225.996094 227.910156 C 228.734375 223.574219 231.429688 219.097656 234.085938 214.492188 C 236.769531 209.835938 239.3125 205.171875 241.722656 200.527344 Z M 224.328125 208.867188 C 220.210938 216.015625 215.984375 222.835938 211.691406 229.269531 C 203.878906 229.828125 195.800781 230.117188 187.570312 230.117188 C 179.367188 230.117188 171.390625 229.867188 163.714844 229.363281 C 159.246094 222.84375 154.929688 216.007812 150.839844 208.929688 C 146.757812 201.875 143 194.757812 139.597656 187.683594 C 143 180.597656 146.746094 173.472656 150.804688 166.429688 C 154.871094 159.371094 159.15625 152.5625 163.578125 146.078125 C 171.410156 145.484375 179.449219 145.175781 187.570312 145.175781 C 195.730469 145.175781 203.765625 145.488281 211.597656 146.085938 C 215.960938 152.523438 220.210938 159.308594 224.296875 166.371094 C 228.425781 173.511719 232.222656 180.585938 235.648438 187.527344 C 232.234375 194.582031 228.445312 201.730469 224.328125 208.867188 Z M 247.546875 83.085938 C 256.375 88.179688 259.804688 108.710938 254.257812 135.636719 C 253.90625 137.355469 253.503906 139.105469 253.074219 140.878906 C 242.144531 138.355469 230.277344 136.476562 217.855469 135.3125 C 210.609375 124.992188 203.109375 115.613281 195.574219 107.496094 C 197.601562 105.546875 199.628906 103.6875 201.636719 101.933594 C 221.085938 84.996094 239.273438 78.304688 247.546875 83.085938 Z M 187.570312 163.867188 C 200.554688 163.867188 211.09375 174.40625 211.09375 187.414062 C 211.09375 200.410156 200.554688 210.957031 187.570312 210.957031 C 174.582031 210.957031 164.042969 200.410156 164.042969 187.414062 C 164.042969 174.40625 174.582031 163.867188 187.570312 163.867188 Z M 187.570312 163.867188 " fill-opacity="1" fill-rule="nonzero"/></g></svg>