<svg xmlns="http://www.w3.org/2000/svg" xmlns:xlink="http://www.w3.org/1999/xlink" width="3000" zoomAndPan="magnify" viewBox="0 0 2250 1499.999933" height="2000" preserveAspectRatio="xMidYMid meet" version="1.0"><defs><clipPath id="5ec4dc6aa6"><path d="M 333 745.421875 L 1911 745.421875 L 1911 754 L 333 754 Z M 333 745.421875 " clip-rule="nonzero"/></clipPath></defs><g clip-path="url(#5ec4dc6aa6)"><path fill="#ffffff" d="M 1865.3125 747.324219 C 1846.75 746.753906 1808.378906 746.8125 1809.796875 746.085938 C 1793.378906 746.109375 1776.8125 746.136719 1758.546875 746.234375 C 1700.246094 746.511719 1636.976562 746.9375 1599.171875 745.855469 C 1577.246094 746.644531 1513.890625 746.460938 1499.53125 745.566406 C 1461.800781 745.515625 1424.058594 745.46875 1386.316406 745.421875 C 1377 746.027344 1342.460938 746.257812 1314.542969 746.085938 C 1277.605469 745.867188 1257.796875 746.765625 1222.421875 746.742188 C 1231.863281 746.753906 1189.980469 746.789062 1187.578125 746.886719 C 1163.453125 746.570312 1187.578125 746.886719 1165.15625 746.378906 C 1142.4375 745.84375 1107.777344 745.53125 1077.753906 745.757812 C 1027.09375 746.160156 970.394531 746.136719 930.953125 746.136719 C 888.023438 746.148438 835.414062 745.382812 808.113281 747.117188 C 796.007812 746.898438 783.90625 746.667969 771.8125 746.449219 C 758.292969 746.195312 680.921875 746.085938 667.871094 746.558594 C 656.777344 745.273438 623.964844 745.808594 577.460938 746.4375 C 562.050781 746.246094 549.898438 746.65625 533.875 746.535156 C 515.890625 746.390625 496.824219 746.378906 478.261719 746.304688 C 474.625 746.109375 471.691406 745.808594 466.957031 745.785156 C 385.917969 745.324219 280.824219 751.421875 362.941406 751.832031 C 389.996094 751.964844 458.652344 752.730469 463.410156 752.125 C 450.097656 752.851562 490.574219 752.101562 523.878906 752.390625 C 571.679688 752.804688 655.160156 753.53125 705.945312 753.347656 C 756.691406 753.179688 821.253906 753.007812 861.226562 752.355469 C 888.429688 753.214844 943.882812 752.621094 987.429688 752.644531 C 1069.234375 752.695312 1159.203125 753.335938 1240.246094 753.664062 C 1282.523438 753.832031 1314.359375 752.101562 1336.101562 751.277344 C 1323.320312 751.53125 1328.335938 752.039062 1341.574219 752.292969 C 1354.800781 752.546875 1372.832031 752.609375 1389.832031 752.667969 C 1531.132812 753.09375 1670.652344 754.414062 1804.089844 753.214844 C 1833.082031 752.949219 1858.730469 752.753906 1883.394531 752.585938 C 1859.667969 751.347656 1969.070312 750.511719 1865.3125 747.324219 " fill-opacity="1" fill-rule="nonzero"/></g></svg>